<svg width="42" height="53" viewBox="0 0 42 53" fill="none" xmlns="http://www.w3.org/2000/svg">
<g clip-path="url(#clip0)">
<path d="M32.275 17C29.815 17 27.4917 17.9889 25.8346 19.7017L13.825 30.7203C12.7317 31.8504 11.2796 32.4684 9.725 32.4684C6.53042 32.4684 3.91667 29.8021 3.91667 26.5C3.91667 23.198 6.53042 20.5316 9.725 20.5316C11.2796 20.5316 12.7317 21.1497 13.8933 22.3504L15.8238 24.1162L18.4375 21.75L16.2508 19.79C15.3953 18.9024 14.3782 18.1988 13.2581 17.7199C12.1379 17.2411 10.9371 16.9964 9.725 17C4.63417 17 0.5 21.2733 0.5 26.5C0.5 31.7268 4.63417 36 9.725 36C12.185 36 14.5083 35.0112 16.1654 33.2983L28.175 22.2798C29.2683 21.1497 30.7204 20.5316 32.275 20.5316C35.4696 20.5316 38.0833 23.198 38.0833 26.5C38.0833 29.8021 35.4696 32.4684 32.275 32.4684C30.7375 32.4684 29.2683 31.8504 28.1067 30.6496L26.125 28.8662L23.5625 31.2324L25.7492 33.21C26.607 34.0932 27.625 34.7927 28.7448 35.2684C29.8646 35.7442 31.0643 35.9868 32.275 35.9823C37.3658 35.9823 41.5 31.7268 41.5 26.5C41.5 21.2026 37.3658 17 32.275 17Z" fill="#02E4C0"/>
</g>
<defs>
<clipPath id="clip0">
<rect width="41" height="53" fill="white" transform="translate(0.5)"/>
</clipPath>
</defs>
</svg>
